<svg width="19" height="34" viewBox="0 0 19 34" fill="none" xmlns="http://www.w3.org/2000/svg">
<path d="M19 17C19 16.3661 18.7571 15.8254 18.2527 15.3407L3.68043 1.11525C3.2881 0.705086 2.765 0.5 2.16716 0.5C0.952803 0.5 0 1.43221 0 2.66271C0 3.25932 0.24287 3.8 0.653883 4.21017L13.7876 17L0.653883 29.7898C0.24287 30.2186 0 30.7593 0 31.3559C0 32.5678 0.952803 33.5 2.16716 33.5C2.765 33.5 3.2881 33.2949 3.68043 32.8847L18.2527 18.6593C18.7571 18.1746 18.9813 17.6339 19 17Z" fill="#3A86FF"/>
</svg>
