<svg width="18" height="10" viewBox="0 0 18 10" fill="none" xmlns="http://www.w3.org/2000/svg">
<path d="M9.00943 9.92261C8.80943 9.92261 8.62193 9.89111 8.44693 9.82811C8.27193 9.76611 8.10943 9.66011 7.95943 9.51011L1.02193 2.57261C0.746932 2.29761 0.615932 1.95362 0.628932 1.54062C0.640932 1.12862 0.784432 0.785115 1.05943 0.510115C1.33443 0.235115 1.68443 0.097614 2.10943 0.097614C2.53443 0.097614 2.88443 0.235115 3.15943 0.510115L9.00943 6.36011L14.8969 0.472614C15.1719 0.197614 15.5159 0.0661147 15.9289 0.0781147C16.3409 0.0911147 16.6844 0.235115 16.9594 0.510115C17.2344 0.785115 17.3719 1.13511 17.3719 1.56011C17.3719 1.98511 17.2344 2.33511 16.9594 2.61011L10.0594 9.51011C9.90943 9.66011 9.74693 9.76611 9.57193 9.82811C9.39693 9.89111 9.20943 9.92261 9.00943 9.92261Z" fill="#3A86FF"/>
</svg>
